<svg xmlns="http://www.w3.org/2000/svg" xmlns:rdkit="http://www.rdkit.org/xml" xmlns:xlink="http://www.w3.org/1999/xlink" version="1.1" baseProfile="full" xml:space="preserve" width="150px" height="150px" viewBox="0 0 150 150">
<!-- END OF HEADER -->
<rect style="opacity:1.0;fill:#FFFFFF;stroke:none" width="150.0" height="150.0" x="0.0" y="0.0"> </rect>
<ellipse cx="102.1" cy="76.2" rx="5.8" ry="5.8" class="atom-1" style="fill:#E5E533;fill-rule:evenodd;stroke:#E5E533;stroke-width:1.0px;stroke-linecap:butt;stroke-linejoin:miter;stroke-opacity:1"/>
<ellipse cx="85.9" cy="100.2" rx="5.8" ry="5.8" class="atom-2" style="fill:#9999E5;fill-rule:evenodd;stroke:#9999E5;stroke-width:1.0px;stroke-linecap:butt;stroke-linejoin:miter;stroke-opacity:1"/>
<ellipse cx="57.0" cy="98.2" rx="5.8" ry="5.8" class="atom-3" style="fill:#E5E533;fill-rule:evenodd;stroke:#E5E533;stroke-width:1.0px;stroke-linecap:butt;stroke-linejoin:miter;stroke-opacity:1"/>
<ellipse cx="44.4" cy="72.1" rx="5.8" ry="5.8" class="atom-4" style="fill:#E5E533;fill-rule:evenodd;stroke:#E5E533;stroke-width:1.0px;stroke-linecap:butt;stroke-linejoin:miter;stroke-opacity:1"/>
<ellipse cx="89.5" cy="50.2" rx="5.8" ry="5.8" class="atom-6" style="fill:#E5E533;fill-rule:evenodd;stroke:#E5E533;stroke-width:1.0px;stroke-linecap:butt;stroke-linejoin:miter;stroke-opacity:1"/>
<path class="bond-0 atom-0 atom-1" d="M 126.3,78.0 L 114.2,77.1" style="fill:none;fill-rule:evenodd;stroke:#FF0000;stroke-width:2.0px;stroke-linecap:butt;stroke-linejoin:miter;stroke-opacity:1"/>
<path class="bond-0 atom-0 atom-1" d="M 114.2,77.1 L 102.1,76.2" style="fill:none;fill-rule:evenodd;stroke:#000000;stroke-width:2.0px;stroke-linecap:butt;stroke-linejoin:miter;stroke-opacity:1"/>
<path class="bond-1 atom-1 atom-2" d="M 102.1,76.2 L 85.9,100.2" style="fill:none;fill-rule:evenodd;stroke:#000000;stroke-width:2.0px;stroke-linecap:butt;stroke-linejoin:miter;stroke-opacity:1"/>
<path class="bond-1 atom-1 atom-2" d="M 97.1,75.9 L 83.7,95.7" style="fill:none;fill-rule:evenodd;stroke:#000000;stroke-width:2.0px;stroke-linecap:butt;stroke-linejoin:miter;stroke-opacity:1"/>
<path class="bond-2 atom-2 atom-3" d="M 85.9,100.2 L 57.0,98.2" style="fill:none;fill-rule:evenodd;stroke:#000000;stroke-width:2.0px;stroke-linecap:butt;stroke-linejoin:miter;stroke-opacity:1"/>
<path class="bond-3 atom-3 atom-4" d="M 57.0,98.2 L 44.4,72.1" style="fill:none;fill-rule:evenodd;stroke:#000000;stroke-width:2.0px;stroke-linecap:butt;stroke-linejoin:miter;stroke-opacity:1"/>
<path class="bond-3 atom-3 atom-4" d="M 59.8,94.0 L 49.4,72.5" style="fill:none;fill-rule:evenodd;stroke:#000000;stroke-width:2.0px;stroke-linecap:butt;stroke-linejoin:miter;stroke-opacity:1"/>
<path class="bond-4 atom-4 atom-5" d="M 44.4,72.1 L 60.2,48.7" style="fill:none;fill-rule:evenodd;stroke:#E5E5E5;stroke-width:1.5px;stroke-linecap:butt;stroke-linejoin:miter;stroke-opacity:1"/>
<path class="bond-5 atom-5 atom-6" d="M 63.5,48.3 L 89.5,50.2" style="fill:none;fill-rule:evenodd;stroke:#E5E5E5;stroke-width:1.5px;stroke-linecap:butt;stroke-linejoin:miter;stroke-opacity:1"/>
<path class="bond-5 atom-5 atom-6" d="M 63.2,52.7 L 86.7,54.4" style="fill:none;fill-rule:evenodd;stroke:#E5E5E5;stroke-width:1.5px;stroke-linecap:butt;stroke-linejoin:miter;stroke-opacity:1"/>
<path class="bond-6 atom-6 atom-1" d="M 89.5,50.2 L 102.1,76.2" style="fill:none;fill-rule:evenodd;stroke:#000000;stroke-width:2.0px;stroke-linecap:butt;stroke-linejoin:miter;stroke-opacity:1"/>
<path class="bond-7 atom-7 atom-4" d="M 23.9,71.0 L 24.0,70.3" style="fill:none;fill-rule:evenodd;stroke:#E5E5E5;stroke-width:1.0px;stroke-linecap:butt;stroke-linejoin:miter;stroke-opacity:1"/>
<path class="bond-7 atom-7 atom-4" d="M 27.3,71.6 L 27.4,70.2" style="fill:none;fill-rule:evenodd;stroke:#E5E5E5;stroke-width:1.0px;stroke-linecap:butt;stroke-linejoin:miter;stroke-opacity:1"/>
<path class="bond-7 atom-7 atom-4" d="M 30.7,72.2 L 30.8,70.1" style="fill:none;fill-rule:evenodd;stroke:#E5E5E5;stroke-width:1.0px;stroke-linecap:butt;stroke-linejoin:miter;stroke-opacity:1"/>
<path class="bond-7 atom-7 atom-4" d="M 34.0,72.8 L 34.2,70.0" style="fill:none;fill-rule:evenodd;stroke:#E5E5E5;stroke-width:1.0px;stroke-linecap:butt;stroke-linejoin:miter;stroke-opacity:1"/>
<path class="bond-7 atom-7 atom-4" d="M 37.4,73.4 L 37.7,69.8" style="fill:none;fill-rule:evenodd;stroke:#E5E5E5;stroke-width:1.0px;stroke-linecap:butt;stroke-linejoin:miter;stroke-opacity:1"/>
<path class="bond-7 atom-7 atom-4" d="M 40.8,74.0 L 41.1,69.7" style="fill:none;fill-rule:evenodd;stroke:#E5E5E5;stroke-width:1.0px;stroke-linecap:butt;stroke-linejoin:miter;stroke-opacity:1"/>
<path d="M 86.7,99.0 L 85.9,100.2 L 84.5,100.1" style="fill:none;stroke:#000000;stroke-width:2.0px;stroke-linecap:butt;stroke-linejoin:miter;stroke-miterlimit:10;stroke-opacity:1;"/>
<path d="M 58.5,98.3 L 57.0,98.2 L 56.4,96.9" style="fill:none;stroke:#000000;stroke-width:2.0px;stroke-linecap:butt;stroke-linejoin:miter;stroke-miterlimit:10;stroke-opacity:1;"/>
<path d="M 44.7,72.8 L 44.4,72.1 L 44.7,71.5" style="fill:none;stroke:#000000;stroke-width:2.0px;stroke-linecap:butt;stroke-linejoin:miter;stroke-miterlimit:10;stroke-opacity:1;"/>
<path d="M 88.8,50.1 L 89.5,50.2 L 89.8,50.8" style="fill:none;stroke:#E5E5E5;stroke-width:1.5px;stroke-linecap:butt;stroke-linejoin:miter;stroke-miterlimit:10;stroke-opacity:1;"/>
<path class="atom-0" d="M 127.3 78.3 Q 127.3 76.4, 128.2 75.3 Q 129.2 74.2, 131.0 74.2 Q 132.9 74.2, 133.8 75.3 Q 134.8 76.4, 134.8 78.3 Q 134.8 80.3, 133.8 81.5 Q 132.8 82.6, 131.0 82.6 Q 129.2 82.6, 128.2 81.5 Q 127.3 80.3, 127.3 78.3 M 131.0 81.7 Q 132.3 81.7, 133.0 80.8 Q 133.6 80.0, 133.6 78.3 Q 133.6 76.7, 133.0 75.9 Q 132.3 75.1, 131.0 75.1 Q 129.8 75.1, 129.1 75.9 Q 128.4 76.7, 128.4 78.3 Q 128.4 80.0, 129.1 80.8 Q 129.8 81.7, 131.0 81.7 " fill="#FF0000"/>
<path class="atom-0" d="M 136.1 74.3 L 137.2 74.3 L 137.2 77.7 L 141.4 77.7 L 141.4 74.3 L 142.5 74.3 L 142.5 82.5 L 141.4 82.5 L 141.4 78.7 L 137.2 78.7 L 137.2 82.5 L 136.1 82.5 L 136.1 74.3 " fill="#FF0000"/>
<path class="atom-5" d="M 59.0 47.2 L 60.2 46.0 L 58.6 45.7 L 58.9 44.8 L 60.4 45.6 L 60.1 44.0 L 61.0 44.0 L 60.8 45.6 L 62.3 44.9 L 62.5 45.7 L 60.9 46.0 L 62.1 47.2 L 61.4 47.7 L 60.6 46.2 L 59.7 47.7 L 59.0 47.2 " fill="#191919"/>
<path class="atom-7" d="M 7.9 69.2 L 9.1 67.9 L 7.5 67.6 L 7.7 66.8 L 9.2 67.5 L 9.0 65.9 L 9.9 65.9 L 9.6 67.5 L 11.1 66.8 L 11.4 67.6 L 9.8 67.9 L 10.9 69.1 L 10.2 69.7 L 9.4 68.1 L 8.6 69.7 L 7.9 69.2 " fill="#191919"/>
<path class="atom-7" d="M 12.2 66.0 L 13.4 66.0 L 13.4 69.5 L 17.6 69.5 L 17.6 66.0 L 18.7 66.0 L 18.7 74.2 L 17.6 74.2 L 17.6 70.5 L 13.4 70.5 L 13.4 74.2 L 12.2 74.2 L 12.2 66.0 " fill="#191919"/>
</svg>