<svg xmlns="http://www.w3.org/2000/svg" xmlns:rdkit="http://www.rdkit.org/xml" xmlns:xlink="http://www.w3.org/1999/xlink" version="1.1" baseProfile="full" xml:space="preserve" width="150px" height="150px" viewBox="0 0 150 150">
<!-- END OF HEADER -->
<rect style="opacity:1.0;fill:#FFFFFF;stroke:none" width="150.0" height="150.0" x="0.0" y="0.0"> </rect>
<ellipse cx="66.2" cy="87.5" rx="12.3" ry="12.3" class="atom-1" style="fill:#E5E533;fill-rule:evenodd;stroke:#E5E533;stroke-width:1.0px;stroke-linecap:butt;stroke-linejoin:miter;stroke-opacity:1"/>
<ellipse cx="118.1" cy="120.5" rx="12.3" ry="12.3" class="atom-2" style="fill:#9999E5;fill-rule:evenodd;stroke:#9999E5;stroke-width:1.0px;stroke-linecap:butt;stroke-linejoin:miter;stroke-opacity:1"/>
<path class="bond-0 atom-0 atom-1" d="M 15.6,108.7 L 66.4,82.2" style="fill:none;fill-rule:evenodd;stroke:#E5E5E5;stroke-width:3.3px;stroke-linecap:butt;stroke-linejoin:miter;stroke-opacity:1"/>
<path class="bond-0 atom-0 atom-1" d="M 19.9,116.9 L 70.7,90.4" style="fill:none;fill-rule:evenodd;stroke:#E5E5E5;stroke-width:3.3px;stroke-linecap:butt;stroke-linejoin:miter;stroke-opacity:1;stroke-dasharray:6,4"/>
<path class="bond-1 atom-1 atom-2" d="M 66.2,87.5 L 108.1,114.2" style="fill:none;fill-rule:evenodd;stroke:#000000;stroke-width:2.0px;stroke-linecap:butt;stroke-linejoin:miter;stroke-opacity:1"/>
<path class="bond-2 atom-1 atom-3" d="M 70.7,90.4 L 73.4,27.4" style="fill:none;fill-rule:evenodd;stroke:#E5E5E5;stroke-width:3.3px;stroke-linecap:butt;stroke-linejoin:miter;stroke-opacity:1"/>
<path class="bond-2 atom-1 atom-3" d="M 61.5,90.0 L 64.1,27.0" style="fill:none;fill-rule:evenodd;stroke:#E5E5E5;stroke-width:3.3px;stroke-linecap:butt;stroke-linejoin:miter;stroke-opacity:1;stroke-dasharray:6,4"/>
<path class="atom-0" d="M 8.3 114.1 L 10.9 111.4 L 7.5 110.8 L 8.0 109.0 L 11.1 110.6 L 10.7 107.2 L 12.5 107.1 L 12.0 110.6 L 15.2 109.1 L 15.7 110.8 L 12.3 111.4 L 14.8 114.0 L 13.3 115.1 L 11.6 111.9 L 9.8 115.1 L 8.3 114.1 " fill="#191919"/>
<path class="atom-2" d="M 110.1 120.6 Q 110.1 116.4, 112.2 114.1 Q 114.3 111.7, 118.1 111.7 Q 122.0 111.7, 124.1 114.1 Q 126.1 116.4, 126.1 120.6 Q 126.1 124.8, 124.1 127.2 Q 122.0 129.6, 118.1 129.6 Q 114.3 129.6, 112.2 127.2 Q 110.1 124.8, 110.1 120.6 M 118.1 127.6 Q 120.8 127.6, 122.2 125.9 Q 123.7 124.1, 123.7 120.6 Q 123.7 117.2, 122.2 115.4 Q 120.8 113.7, 118.1 113.7 Q 115.5 113.7, 114.0 115.4 Q 112.6 117.1, 112.6 120.6 Q 112.6 124.1, 114.0 125.9 Q 115.5 127.6, 118.1 127.6 " fill="#000000"/>
<path class="atom-2" d="M 128.9 111.9 L 131.2 111.9 L 131.2 119.3 L 140.1 119.3 L 140.1 111.9 L 142.5 111.9 L 142.5 129.3 L 140.1 129.3 L 140.1 121.3 L 131.2 121.3 L 131.2 129.3 L 128.9 129.3 L 128.9 111.9 " fill="#000000"/>
<path class="atom-3" d="M 65.5 24.1 L 68.1 21.5 L 64.7 20.8 L 65.2 19.0 L 68.3 20.6 L 67.9 17.2 L 69.7 17.2 L 69.2 20.6 L 72.4 19.1 L 72.9 20.8 L 69.5 21.4 L 71.9 24.1 L 70.4 25.1 L 68.7 21.9 L 67.0 25.1 L 65.5 24.1 " fill="#191919"/>
</svg>