<svg xmlns="http://www.w3.org/2000/svg" xmlns:rdkit="http://www.rdkit.org/xml" xmlns:xlink="http://www.w3.org/1999/xlink" version="1.1" baseProfile="full" xml:space="preserve" width="150px" height="150px" viewBox="0 0 150 150">
<!-- END OF HEADER -->
<rect style="opacity:1.0;fill:#FFFFFF;stroke:none" width="150.0" height="150.0" x="0.0" y="0.0"> </rect>
<ellipse cx="52.9" cy="80.1" rx="5.9" ry="5.9" class="atom-1" style="fill:#E5E533;fill-rule:evenodd;stroke:#E5E533;stroke-width:1.0px;stroke-linecap:butt;stroke-linejoin:miter;stroke-opacity:1"/>
<ellipse cx="63.1" cy="52.3" rx="5.9" ry="5.9" class="atom-2" style="fill:#9999E5;fill-rule:evenodd;stroke:#9999E5;stroke-width:1.0px;stroke-linecap:butt;stroke-linejoin:miter;stroke-opacity:1"/>
<ellipse cx="92.3" cy="47.1" rx="5.9" ry="5.9" class="atom-3" style="fill:#E5E533;fill-rule:evenodd;stroke:#E5E533;stroke-width:1.0px;stroke-linecap:butt;stroke-linejoin:miter;stroke-opacity:1"/>
<ellipse cx="111.3" cy="69.9" rx="5.9" ry="5.9" class="atom-4" style="fill:#E5E533;fill-rule:evenodd;stroke:#E5E533;stroke-width:1.0px;stroke-linecap:butt;stroke-linejoin:miter;stroke-opacity:1"/>
<ellipse cx="72.0" cy="102.9" rx="5.9" ry="5.9" class="atom-7" style="fill:#E5E533;fill-rule:evenodd;stroke:#E5E533;stroke-width:1.0px;stroke-linecap:butt;stroke-linejoin:miter;stroke-opacity:1"/>
<path class="bond-0 atom-0 atom-1" d="M 27.9,84.6 L 40.4,82.4" style="fill:none;fill-rule:evenodd;stroke:#0000FF;stroke-width:2.0px;stroke-linecap:butt;stroke-linejoin:miter;stroke-opacity:1"/>
<path class="bond-0 atom-0 atom-1" d="M 40.4,82.4 L 52.9,80.1" style="fill:none;fill-rule:evenodd;stroke:#000000;stroke-width:2.0px;stroke-linecap:butt;stroke-linejoin:miter;stroke-opacity:1"/>
<path class="bond-1 atom-1 atom-2" d="M 52.9,80.1 L 63.1,52.3" style="fill:none;fill-rule:evenodd;stroke:#000000;stroke-width:2.0px;stroke-linecap:butt;stroke-linejoin:miter;stroke-opacity:1"/>
<path class="bond-1 atom-1 atom-2" d="M 58.0,79.3 L 66.4,56.2" style="fill:none;fill-rule:evenodd;stroke:#000000;stroke-width:2.0px;stroke-linecap:butt;stroke-linejoin:miter;stroke-opacity:1"/>
<path class="bond-2 atom-2 atom-3" d="M 63.1,52.3 L 92.3,47.1" style="fill:none;fill-rule:evenodd;stroke:#000000;stroke-width:2.0px;stroke-linecap:butt;stroke-linejoin:miter;stroke-opacity:1"/>
<path class="bond-3 atom-3 atom-4" d="M 92.3,47.1 L 111.3,69.9" style="fill:none;fill-rule:evenodd;stroke:#000000;stroke-width:2.0px;stroke-linecap:butt;stroke-linejoin:miter;stroke-opacity:1"/>
<path class="bond-3 atom-3 atom-4" d="M 90.5,52.0 L 106.3,70.7" style="fill:none;fill-rule:evenodd;stroke:#000000;stroke-width:2.0px;stroke-linecap:butt;stroke-linejoin:miter;stroke-opacity:1"/>
<path class="bond-4 atom-4 atom-5" d="M 111.3,69.9 L 137.5,65.2" style="fill:none;fill-rule:evenodd;stroke:#E5E5E5;stroke-width:1.6px;stroke-linecap:butt;stroke-linejoin:miter;stroke-opacity:1"/>
<path class="bond-5 atom-4 atom-6" d="M 111.3,69.9 L 103.1,92.5" style="fill:none;fill-rule:evenodd;stroke:#E5E5E5;stroke-width:1.6px;stroke-linecap:butt;stroke-linejoin:miter;stroke-opacity:1"/>
<path class="bond-6 atom-6 atom-7" d="M 98.2,98.2 L 72.0,102.9" style="fill:none;fill-rule:evenodd;stroke:#E5E5E5;stroke-width:1.6px;stroke-linecap:butt;stroke-linejoin:miter;stroke-opacity:1"/>
<path class="bond-6 atom-6 atom-7" d="M 97.4,93.9 L 73.7,98.0" style="fill:none;fill-rule:evenodd;stroke:#E5E5E5;stroke-width:1.6px;stroke-linecap:butt;stroke-linejoin:miter;stroke-opacity:1"/>
<path class="bond-7 atom-7 atom-1" d="M 72.0,102.9 L 52.9,80.1" style="fill:none;fill-rule:evenodd;stroke:#000000;stroke-width:2.0px;stroke-linecap:butt;stroke-linejoin:miter;stroke-opacity:1"/>
<path d="M 62.5,53.7 L 63.1,52.3 L 64.5,52.0" style="fill:none;stroke:#000000;stroke-width:2.0px;stroke-linecap:butt;stroke-linejoin:miter;stroke-miterlimit:10;stroke-opacity:1;"/>
<path d="M 90.8,47.4 L 92.3,47.1 L 93.2,48.3" style="fill:none;stroke:#000000;stroke-width:2.0px;stroke-linecap:butt;stroke-linejoin:miter;stroke-miterlimit:10;stroke-opacity:1;"/>
<path d="M 72.6,102.7 L 72.0,102.9 L 71.5,102.3" style="fill:none;stroke:#E5E5E5;stroke-width:1.6px;stroke-linecap:butt;stroke-linejoin:miter;stroke-miterlimit:10;stroke-opacity:1;"/>
<path class="atom-0" d="M 7.5 81.1 L 8.6 81.1 L 8.6 84.7 L 12.9 84.7 L 12.9 81.1 L 14.1 81.1 L 14.1 89.5 L 12.9 89.5 L 12.9 85.6 L 8.6 85.6 L 8.6 89.5 L 7.5 89.5 L 7.5 81.1 " fill="#0000FF"/>
<path class="atom-0" d="M 15.7 89.2 Q 15.9 88.7, 16.4 88.4 Q 16.9 88.1, 17.6 88.1 Q 18.4 88.1, 18.9 88.5 Q 19.3 89.0, 19.3 89.8 Q 19.3 90.6, 18.7 91.4 Q 18.1 92.2, 16.9 93.1 L 19.4 93.1 L 19.4 93.7 L 15.7 93.7 L 15.7 93.2 Q 16.7 92.4, 17.3 91.9 Q 18.0 91.3, 18.3 90.8 Q 18.6 90.3, 18.6 89.8 Q 18.6 89.3, 18.3 89.0 Q 18.0 88.7, 17.6 88.7 Q 17.1 88.7, 16.8 88.9 Q 16.5 89.1, 16.3 89.5 L 15.7 89.2 " fill="#0000FF"/>
<path class="atom-0" d="M 21.9 81.1 L 24.6 85.5 Q 24.9 86.0, 25.3 86.8 Q 25.8 87.6, 25.8 87.6 L 25.8 81.1 L 26.9 81.1 L 26.9 89.5 L 25.7 89.5 L 22.8 84.6 Q 22.4 84.1, 22.1 83.4 Q 21.7 82.8, 21.6 82.6 L 21.6 89.5 L 20.5 89.5 L 20.5 81.1 L 21.9 81.1 " fill="#0000FF"/>
<path class="atom-5" d="M 138.9 63.8 L 140.2 62.5 L 138.5 62.2 L 138.8 61.3 L 140.3 62.1 L 140.1 60.5 L 141.0 60.4 L 140.7 62.1 L 142.2 61.4 L 142.5 62.2 L 140.8 62.5 L 142.0 63.8 L 141.3 64.3 L 140.5 62.7 L 139.7 64.3 L 138.9 63.8 " fill="#191919"/>
<path class="atom-6" d="M 99.6 96.8 L 100.8 95.5 L 99.2 95.2 L 99.4 94.3 L 100.9 95.1 L 100.7 93.5 L 101.6 93.4 L 101.4 95.1 L 102.9 94.4 L 103.2 95.2 L 101.5 95.5 L 102.7 96.8 L 102.0 97.3 L 101.1 95.7 L 100.3 97.3 L 99.6 96.8 " fill="#191919"/>
</svg>