<svg xmlns="http://www.w3.org/2000/svg" xmlns:rdkit="http://www.rdkit.org/xml" xmlns:xlink="http://www.w3.org/1999/xlink" version="1.1" baseProfile="full" xml:space="preserve" width="150px" height="150px" viewBox="0 0 150 150">
<!-- END OF HEADER -->
<rect style="opacity:1.0;fill:#FFFFFF;stroke:none" width="150.0" height="150.0" x="0.0" y="0.0"> </rect>
<ellipse cx="43.6" cy="81.3" rx="7.3" ry="7.3" class="atom-1" style="fill:#E5E533;fill-rule:evenodd;stroke:#E5E533;stroke-width:1.0px;stroke-linecap:butt;stroke-linejoin:miter;stroke-opacity:1"/>
<ellipse cx="106.7" cy="88.5" rx="7.3" ry="7.3" class="atom-5" style="fill:#E5E533;fill-rule:evenodd;stroke:#E5E533;stroke-width:1.0px;stroke-linecap:butt;stroke-linejoin:miter;stroke-opacity:1"/>
<ellipse cx="73.1" cy="103.1" rx="7.3" ry="7.3" class="atom-6" style="fill:#9999E5;fill-rule:evenodd;stroke:#9999E5;stroke-width:1.0px;stroke-linecap:butt;stroke-linejoin:miter;stroke-opacity:1"/>
<path class="bond-0 atom-0 atom-1" d="M 13.6,94.3 L 43.6,81.3" style="fill:none;fill-rule:evenodd;stroke:#E5E5E5;stroke-width:2.0px;stroke-linecap:butt;stroke-linejoin:miter;stroke-opacity:1"/>
<path class="bond-1 atom-1 atom-2" d="M 46.2,83.2 L 50.5,45.8" style="fill:none;fill-rule:evenodd;stroke:#E5E5E5;stroke-width:2.0px;stroke-linecap:butt;stroke-linejoin:miter;stroke-opacity:1"/>
<path class="bond-1 atom-1 atom-2" d="M 40.7,82.5 L 45.0,45.2" style="fill:none;fill-rule:evenodd;stroke:#E5E5E5;stroke-width:2.0px;stroke-linecap:butt;stroke-linejoin:miter;stroke-opacity:1;stroke-dasharray:6,4"/>
<path class="bond-2 atom-4 atom-5" d="M 135.2,104.6 L 103.3,90.0" style="fill:none;fill-rule:evenodd;stroke:#E5E5E5;stroke-width:2.0px;stroke-linecap:butt;stroke-linejoin:miter;stroke-opacity:1"/>
<path class="bond-2 atom-4 atom-5" d="M 137.5,99.6 L 107.0,85.7" style="fill:none;fill-rule:evenodd;stroke:#E5E5E5;stroke-width:2.0px;stroke-linecap:butt;stroke-linejoin:miter;stroke-opacity:1;stroke-dasharray:6,4"/>
<path class="bond-3 atom-5 atom-6" d="M 106.7,88.5 L 73.1,103.1" style="fill:none;fill-rule:evenodd;stroke:#000000;stroke-width:2.0px;stroke-linecap:butt;stroke-linejoin:miter;stroke-opacity:1"/>
<path class="bond-3 atom-5 atom-6" d="M 101.6,84.7 L 73.8,96.8" style="fill:none;fill-rule:evenodd;stroke:#000000;stroke-width:2.0px;stroke-linecap:butt;stroke-linejoin:miter;stroke-opacity:1;stroke-dasharray:6,4"/>
<path class="bond-4 atom-6 atom-1" d="M 73.1,103.1 L 43.6,81.3" style="fill:none;fill-rule:evenodd;stroke:#000000;stroke-width:2.0px;stroke-linecap:butt;stroke-linejoin:miter;stroke-opacity:1"/>
<path class="bond-4 atom-6 atom-1" d="M 73.8,96.8 L 49.4,78.7" style="fill:none;fill-rule:evenodd;stroke:#000000;stroke-width:2.0px;stroke-linecap:butt;stroke-linejoin:miter;stroke-opacity:1;stroke-dasharray:6,4"/>
<path class="bond-5 atom-5 atom-3" d="M 109.3,89.7 L 113.5,53.1" style="fill:none;fill-rule:evenodd;stroke:#E5E5E5;stroke-width:2.0px;stroke-linecap:butt;stroke-linejoin:miter;stroke-opacity:1"/>
<path class="bond-5 atom-5 atom-3" d="M 103.8,89.8 L 108.1,52.5" style="fill:none;fill-rule:evenodd;stroke:#E5E5E5;stroke-width:2.0px;stroke-linecap:butt;stroke-linejoin:miter;stroke-opacity:1;stroke-dasharray:6,4"/>
<path d="M 74.7,102.4 L 73.1,103.1 L 71.6,102.0" style="fill:none;stroke:#000000;stroke-width:2.0px;stroke-linecap:butt;stroke-linejoin:miter;stroke-miterlimit:10;stroke-opacity:1;"/>
<path class="atom-0" d="M 8.0 94.7 L 9.5 93.1 L 7.5 92.7 L 7.8 91.7 L 9.7 92.6 L 9.4 90.6 L 10.5 90.6 L 10.2 92.6 L 12.1 91.7 L 12.4 92.7 L 10.4 93.1 L 11.8 94.7 L 10.9 95.3 L 9.9 93.4 L 8.9 95.3 L 8.0 94.7 " fill="#191919"/>
<path class="atom-2" d="M 45.8 43.7 L 47.4 42.1 L 45.3 41.7 L 45.7 40.7 L 47.5 41.6 L 47.3 39.6 L 48.4 39.6 L 48.0 41.6 L 49.9 40.7 L 50.3 41.7 L 48.2 42.1 L 49.7 43.7 L 48.8 44.3 L 47.8 42.4 L 46.7 44.3 L 45.8 43.7 " fill="#191919"/>
<path class="atom-3" d="M 108.9 50.9 L 110.5 49.4 L 108.4 49.0 L 108.7 47.9 L 110.6 48.9 L 110.3 46.8 L 111.4 46.8 L 111.1 48.9 L 113.0 48.0 L 113.4 49.0 L 111.3 49.4 L 112.8 50.9 L 111.9 51.6 L 110.9 49.6 L 109.8 51.6 L 108.9 50.9 " fill="#191919"/>
<path class="atom-4" d="M 138.1 102.6 L 139.6 101.1 L 137.6 100.7 L 137.9 99.6 L 139.8 100.6 L 139.5 98.5 L 140.6 98.5 L 140.3 100.5 L 142.2 99.7 L 142.5 100.7 L 140.4 101.0 L 141.9 102.6 L 141.0 103.3 L 140.0 101.3 L 139.0 103.3 L 138.1 102.6 " fill="#191919"/>
</svg>