<svg xmlns="http://www.w3.org/2000/svg" xmlns:rdkit="http://www.rdkit.org/xml" xmlns:xlink="http://www.w3.org/1999/xlink" version="1.1" baseProfile="full" xml:space="preserve" width="150px" height="150px" viewBox="0 0 150 150">
<!-- END OF HEADER -->
<rect style="opacity:1.0;fill:#FFFFFF;stroke:none" width="150.0" height="150.0" x="0.0" y="0.0"> </rect>
<ellipse cx="46.4" cy="129.3" rx="12.3" ry="12.3" class="atom-1" style="fill:#E5E533;fill-rule:evenodd;stroke:#E5E533;stroke-width:1.0px;stroke-linecap:butt;stroke-linejoin:miter;stroke-opacity:1"/>
<ellipse cx="107.5" cy="120.2" rx="12.3" ry="12.3" class="atom-2" style="fill:#9999E5;fill-rule:evenodd;stroke:#9999E5;stroke-width:1.0px;stroke-linecap:butt;stroke-linejoin:miter;stroke-opacity:1"/>
<ellipse cx="130.2" cy="62.8" rx="12.3" ry="12.3" class="atom-3" style="fill:#E5E533;fill-rule:evenodd;stroke:#E5E533;stroke-width:1.0px;stroke-linecap:butt;stroke-linejoin:miter;stroke-opacity:1"/>
<path class="bond-0 atom-0 atom-1" d="M 8.9,82.0 L 46.4,129.3" style="fill:none;fill-rule:evenodd;stroke:#E5E5E5;stroke-width:3.3px;stroke-linecap:butt;stroke-linejoin:miter;stroke-opacity:1"/>
<path class="bond-0 atom-0 atom-1" d="M 16.2,76.3 L 50.3,119.3" style="fill:none;fill-rule:evenodd;stroke:#E5E5E5;stroke-width:3.3px;stroke-linecap:butt;stroke-linejoin:miter;stroke-opacity:1;stroke-dasharray:6,4"/>
<path class="bond-1 atom-1 atom-2" d="M 46.4,129.3 L 107.5,120.2" style="fill:none;fill-rule:evenodd;stroke:#000000;stroke-width:2.0px;stroke-linecap:butt;stroke-linejoin:miter;stroke-opacity:1"/>
<path class="bond-1 atom-1 atom-2" d="M 50.3,119.3 L 100.8,111.8" style="fill:none;fill-rule:evenodd;stroke:#000000;stroke-width:2.0px;stroke-linecap:butt;stroke-linejoin:miter;stroke-opacity:1;stroke-dasharray:6,4"/>
<path class="bond-2 atom-2 atom-3" d="M 107.5,120.2 L 130.2,62.8" style="fill:none;fill-rule:evenodd;stroke:#000000;stroke-width:2.0px;stroke-linecap:butt;stroke-linejoin:miter;stroke-opacity:1"/>
<path class="bond-2 atom-2 atom-3" d="M 100.8,111.8 L 119.6,64.3" style="fill:none;fill-rule:evenodd;stroke:#000000;stroke-width:2.0px;stroke-linecap:butt;stroke-linejoin:miter;stroke-opacity:1;stroke-dasharray:6,4"/>
<path class="bond-3 atom-3 atom-4" d="M 130.2,62.8 L 92.7,15.6" style="fill:none;fill-rule:evenodd;stroke:#E5E5E5;stroke-width:3.3px;stroke-linecap:butt;stroke-linejoin:miter;stroke-opacity:1"/>
<path class="bond-3 atom-3 atom-4" d="M 119.6,64.3 L 85.4,21.3" style="fill:none;fill-rule:evenodd;stroke:#E5E5E5;stroke-width:3.3px;stroke-linecap:butt;stroke-linejoin:miter;stroke-opacity:1;stroke-dasharray:6,4"/>
<path d="M 45.5,128.1 L 46.4,129.3 L 47.9,129.0" style="fill:none;stroke:#E5E5E5;stroke-width:3.3px;stroke-linecap:butt;stroke-linejoin:miter;stroke-miterlimit:10;stroke-opacity:1;"/>
<path d="M 104.4,120.6 L 107.5,120.2 L 108.6,117.3" style="fill:none;stroke:#000000;stroke-width:2.0px;stroke-linecap:butt;stroke-linejoin:miter;stroke-miterlimit:10;stroke-opacity:1;"/>
<path d="M 129.6,64.2 L 130.2,62.8 L 129.2,61.6" style="fill:none;stroke:#000000;stroke-width:2.0px;stroke-linecap:butt;stroke-linejoin:miter;stroke-miterlimit:10;stroke-opacity:1;"/>
<path class="atom-0" d="M 8.3 76.1 L 10.9 73.4 L 7.5 72.8 L 8.0 71.0 L 11.2 72.6 L 10.7 69.1 L 12.6 69.1 L 12.0 72.6 L 15.2 71.1 L 15.8 72.8 L 12.3 73.4 L 14.8 76.0 L 13.3 77.1 L 11.6 73.9 L 9.8 77.1 L 8.3 76.1 " fill="#191919"/>
<path class="atom-4" d="M 84.8 15.3 L 87.4 12.7 L 84.0 12.0 L 84.5 10.3 L 87.7 11.9 L 87.2 8.4 L 89.1 8.4 L 88.5 11.8 L 91.7 10.4 L 92.3 12.0 L 88.8 12.7 L 91.3 15.3 L 89.8 16.4 L 88.1 13.1 L 86.4 16.4 L 84.8 15.3 " fill="#191919"/>
</svg>