<svg xmlns="http://www.w3.org/2000/svg" xmlns:rdkit="http://www.rdkit.org/xml" xmlns:xlink="http://www.w3.org/1999/xlink" version="1.1" baseProfile="full" xml:space="preserve" width="150px" height="150px" viewBox="0 0 150 150">
<!-- END OF HEADER -->
<rect style="opacity:1.0;fill:#FFFFFF;stroke:none" width="150.0" height="150.0" x="0.0" y="0.0"> </rect>
<ellipse cx="118.1" cy="118.3" rx="5.8" ry="5.8" class="atom-1" style="fill:#E5E533;fill-rule:evenodd;stroke:#E5E533;stroke-width:1.0px;stroke-linecap:butt;stroke-linejoin:miter;stroke-opacity:1"/>
<ellipse cx="90.9" cy="108.0" rx="5.8" ry="5.8" class="atom-2" style="fill:#E5E533;fill-rule:evenodd;stroke:#E5E533;stroke-width:1.0px;stroke-linecap:butt;stroke-linejoin:miter;stroke-opacity:1"/>
<ellipse cx="86.2" cy="79.3" rx="5.8" ry="5.8" class="atom-3" style="fill:#9999E5;fill-rule:evenodd;stroke:#9999E5;stroke-width:1.0px;stroke-linecap:butt;stroke-linejoin:miter;stroke-opacity:1"/>
<ellipse cx="108.7" cy="60.9" rx="5.8" ry="5.8" class="atom-9" style="fill:#E5E533;fill-rule:evenodd;stroke:#E5E533;stroke-width:1.0px;stroke-linecap:butt;stroke-linejoin:miter;stroke-opacity:1"/>
<ellipse cx="135.9" cy="71.2" rx="5.8" ry="5.8" class="atom-11" style="fill:#E5E533;fill-rule:evenodd;stroke:#E5E533;stroke-width:1.0px;stroke-linecap:butt;stroke-linejoin:miter;stroke-opacity:1"/>
<path class="bond-0 atom-0 atom-1" d="M 139.9,100.4 L 118.1,118.3" style="fill:none;fill-rule:evenodd;stroke:#E5E5E5;stroke-width:1.5px;stroke-linecap:butt;stroke-linejoin:miter;stroke-opacity:1"/>
<path class="bond-0 atom-0 atom-1" d="M 137.1,97.0 L 117.3,113.3" style="fill:none;fill-rule:evenodd;stroke:#E5E5E5;stroke-width:1.5px;stroke-linecap:butt;stroke-linejoin:miter;stroke-opacity:1"/>
<path class="bond-1 atom-1 atom-2" d="M 118.1,118.3 L 90.9,108.0" style="fill:none;fill-rule:evenodd;stroke:#000000;stroke-width:2.0px;stroke-linecap:butt;stroke-linejoin:miter;stroke-opacity:1"/>
<path class="bond-2 atom-2 atom-3" d="M 90.9,108.0 L 86.2,79.3" style="fill:none;fill-rule:evenodd;stroke:#000000;stroke-width:2.0px;stroke-linecap:butt;stroke-linejoin:miter;stroke-opacity:1"/>
<path class="bond-2 atom-2 atom-3" d="M 94.8,104.8 L 90.9,81.1" style="fill:none;fill-rule:evenodd;stroke:#000000;stroke-width:2.0px;stroke-linecap:butt;stroke-linejoin:miter;stroke-opacity:1"/>
<path class="bond-3 atom-3 atom-4" d="M 86.2,79.3 L 59.1,69.1" style="fill:none;fill-rule:evenodd;stroke:#000000;stroke-width:2.0px;stroke-linecap:butt;stroke-linejoin:miter;stroke-opacity:1"/>
<path class="bond-4 atom-4 atom-5" d="M 59.1,69.1 L 54.4,40.4" style="fill:none;fill-rule:evenodd;stroke:#000000;stroke-width:2.0px;stroke-linecap:butt;stroke-linejoin:miter;stroke-opacity:1"/>
<path class="bond-5 atom-5 atom-6" d="M 54.4,40.4 L 28.7,30.7" style="fill:none;fill-rule:evenodd;stroke:#E5E5E5;stroke-width:1.5px;stroke-linecap:butt;stroke-linejoin:miter;stroke-opacity:1"/>
<path class="bond-6 atom-4 atom-7" d="M 59.1,69.1 L 50.2,76.3" style="fill:none;fill-rule:evenodd;stroke:#000000;stroke-width:2.0px;stroke-linecap:butt;stroke-linejoin:miter;stroke-opacity:1"/>
<path class="bond-6 atom-4 atom-7" d="M 50.2,76.3 L 41.3,83.6" style="fill:none;fill-rule:evenodd;stroke:#FF0000;stroke-width:2.0px;stroke-linecap:butt;stroke-linejoin:miter;stroke-opacity:1"/>
<path class="bond-7 atom-7 atom-8" d="M 31.9,85.6 L 10.9,77.7" style="fill:none;fill-rule:evenodd;stroke:#E5E5E5;stroke-width:1.5px;stroke-linecap:butt;stroke-linejoin:miter;stroke-opacity:1"/>
<path class="bond-8 atom-3 atom-9" d="M 86.2,79.3 L 108.7,60.9" style="fill:none;fill-rule:evenodd;stroke:#000000;stroke-width:2.0px;stroke-linecap:butt;stroke-linejoin:miter;stroke-opacity:1"/>
<path class="bond-9 atom-9 atom-10" d="M 108.7,60.9 L 106.8,49.3" style="fill:none;fill-rule:evenodd;stroke:#000000;stroke-width:2.0px;stroke-linecap:butt;stroke-linejoin:miter;stroke-opacity:1"/>
<path class="bond-9 atom-9 atom-10" d="M 106.8,49.3 L 104.9,37.8" style="fill:none;fill-rule:evenodd;stroke:#00CC00;stroke-width:2.0px;stroke-linecap:butt;stroke-linejoin:miter;stroke-opacity:1"/>
<path class="bond-10 atom-9 atom-11" d="M 108.7,60.9 L 135.9,71.2" style="fill:none;fill-rule:evenodd;stroke:#000000;stroke-width:2.0px;stroke-linecap:butt;stroke-linejoin:miter;stroke-opacity:1"/>
<path class="bond-10 atom-9 atom-11" d="M 109.5,65.9 L 132.0,74.4" style="fill:none;fill-rule:evenodd;stroke:#000000;stroke-width:2.0px;stroke-linecap:butt;stroke-linejoin:miter;stroke-opacity:1"/>
<path class="bond-11 atom-11 atom-0" d="M 135.9,71.2 L 139.7,94.7" style="fill:none;fill-rule:evenodd;stroke:#E5E5E5;stroke-width:1.5px;stroke-linecap:butt;stroke-linejoin:miter;stroke-opacity:1"/>
<path d="M 118.6,117.8 L 118.1,118.3 L 117.4,118.0" style="fill:none;stroke:#E5E5E5;stroke-width:1.5px;stroke-linecap:butt;stroke-linejoin:miter;stroke-miterlimit:10;stroke-opacity:1;"/>
<path d="M 92.3,108.5 L 90.9,108.0 L 90.7,106.5" style="fill:none;stroke:#000000;stroke-width:2.0px;stroke-linecap:butt;stroke-linejoin:miter;stroke-miterlimit:10;stroke-opacity:1;"/>
<path d="M 54.5,41.1 L 54.4,40.4 L 53.8,40.2" style="fill:none;stroke:#000000;stroke-width:2.0px;stroke-linecap:butt;stroke-linejoin:miter;stroke-miterlimit:10;stroke-opacity:1;"/>
<path d="M 135.2,71.0 L 135.9,71.2 L 136.0,71.8" style="fill:none;stroke:#000000;stroke-width:2.0px;stroke-linecap:butt;stroke-linejoin:miter;stroke-miterlimit:10;stroke-opacity:1;"/>
<path class="atom-0" d="M 139.0 99.0 L 140.2 97.7 L 138.6 97.4 L 138.9 96.6 L 140.3 97.3 L 140.1 95.7 L 141.0 95.7 L 140.7 97.3 L 142.2 96.6 L 142.5 97.4 L 140.9 97.7 L 142.0 98.9 L 141.3 99.5 L 140.5 97.9 L 139.7 99.5 L 139.0 99.0 " fill="#191919"/>
<path class="atom-6" d="M 25.7 29.2 L 26.9 28.0 L 25.3 27.6 L 25.5 26.8 L 27.0 27.6 L 26.8 26.0 L 27.7 25.9 L 27.4 27.6 L 28.9 26.9 L 29.2 27.6 L 27.6 27.9 L 28.7 29.2 L 28.0 29.7 L 27.2 28.2 L 26.4 29.7 L 25.7 29.2 " fill="#191919"/>
<path class="atom-7" d="M 32.8 87.5 Q 32.8 85.5, 33.8 84.4 Q 34.8 83.3, 36.6 83.3 Q 38.4 83.3, 39.4 84.4 Q 40.4 85.5, 40.4 87.5 Q 40.4 89.5, 39.4 90.6 Q 38.4 91.7, 36.6 91.7 Q 34.8 91.7, 33.8 90.6 Q 32.8 89.5, 32.8 87.5 M 36.6 90.8 Q 37.9 90.8, 38.5 90.0 Q 39.2 89.1, 39.2 87.5 Q 39.2 85.8, 38.5 85.0 Q 37.9 84.2, 36.6 84.2 Q 35.3 84.2, 34.7 85.0 Q 34.0 85.8, 34.0 87.5 Q 34.0 89.1, 34.7 90.0 Q 35.3 90.8, 36.6 90.8 " fill="#FF0000"/>
<path class="atom-8" d="M 7.9 76.2 L 9.1 75.0 L 7.5 74.7 L 7.7 73.9 L 9.2 74.6 L 9.0 73.0 L 9.9 73.0 L 9.6 74.6 L 11.1 73.9 L 11.4 74.7 L 9.8 75.0 L 10.9 76.2 L 10.2 76.7 L 9.4 75.2 L 8.6 76.7 L 7.9 76.2 " fill="#191919"/>
<path class="atom-10" d="M 100.9 32.6 Q 100.9 30.5, 101.8 29.5 Q 102.8 28.4, 104.6 28.4 Q 106.3 28.4, 107.2 29.6 L 106.4 30.2 Q 105.8 29.3, 104.6 29.3 Q 103.4 29.3, 102.7 30.2 Q 102.0 31.0, 102.0 32.6 Q 102.0 34.2, 102.7 35.0 Q 103.4 35.9, 104.7 35.9 Q 105.6 35.9, 106.7 35.3 L 107.0 36.2 Q 106.6 36.5, 105.9 36.6 Q 105.3 36.8, 104.6 36.8 Q 102.8 36.8, 101.8 35.7 Q 100.9 34.6, 100.9 32.6 " fill="#00CC00"/>
<path class="atom-10" d="M 108.0 27.9 L 109.1 27.9 L 109.1 36.7 L 108.0 36.7 L 108.0 27.9 " fill="#00CC00"/>
</svg>