<svg xmlns="http://www.w3.org/2000/svg" xmlns:rdkit="http://www.rdkit.org/xml" xmlns:xlink="http://www.w3.org/1999/xlink" version="1.1" baseProfile="full" xml:space="preserve" width="150px" height="150px" viewBox="0 0 150 150">
<!-- END OF HEADER -->
<rect style="opacity:1.0;fill:#FFFFFF;stroke:none" width="150.0" height="150.0" x="0.0" y="0.0"> </rect>
<ellipse cx="47.0" cy="123.5" rx="7.9" ry="7.9" class="atom-2" style="fill:#CCCCCC;fill-rule:evenodd;stroke:#CCCCCC;stroke-width:1.0px;stroke-linecap:butt;stroke-linejoin:miter;stroke-opacity:1"/>
<ellipse cx="72.1" cy="92.8" rx="7.9" ry="7.9" class="atom-3" style="fill:#9999E5;fill-rule:evenodd;stroke:#9999E5;stroke-width:1.0px;stroke-linecap:butt;stroke-linejoin:miter;stroke-opacity:1"/>
<ellipse cx="111.7" cy="91.0" rx="7.9" ry="7.9" class="atom-4" style="fill:#CCCCCC;fill-rule:evenodd;stroke:#CCCCCC;stroke-width:1.0px;stroke-linecap:butt;stroke-linejoin:miter;stroke-opacity:1"/>
<ellipse cx="50.8" cy="59.5" rx="7.9" ry="7.9" class="atom-8" style="fill:#CCCCCC;fill-rule:evenodd;stroke:#CCCCCC;stroke-width:1.0px;stroke-linecap:butt;stroke-linejoin:miter;stroke-opacity:1"/>
<path class="bond-0 atom-1 atom-2" d="M 12.0,109.8 L 47.0,123.5" style="fill:none;fill-rule:evenodd;stroke:#E5E5E5;stroke-width:2.1px;stroke-linecap:butt;stroke-linejoin:miter;stroke-opacity:1"/>
<path class="bond-1 atom-3 atom-2" d="M 69.6,95.4 L 70.1,95.8" style="fill:none;fill-rule:evenodd;stroke:#000000;stroke-width:1.0px;stroke-linecap:butt;stroke-linejoin:miter;stroke-opacity:1"/>
<path class="bond-1 atom-3 atom-2" d="M 67.1,98.0 L 68.0,98.8" style="fill:none;fill-rule:evenodd;stroke:#000000;stroke-width:1.0px;stroke-linecap:butt;stroke-linejoin:miter;stroke-opacity:1"/>
<path class="bond-1 atom-3 atom-2" d="M 64.6,100.6 L 66.0,101.7" style="fill:none;fill-rule:evenodd;stroke:#000000;stroke-width:1.0px;stroke-linecap:butt;stroke-linejoin:miter;stroke-opacity:1"/>
<path class="bond-1 atom-3 atom-2" d="M 62.1,103.2 L 63.9,104.7" style="fill:none;fill-rule:evenodd;stroke:#000000;stroke-width:1.0px;stroke-linecap:butt;stroke-linejoin:miter;stroke-opacity:1"/>
<path class="bond-1 atom-3 atom-2" d="M 59.6,105.8 L 61.9,107.7" style="fill:none;fill-rule:evenodd;stroke:#000000;stroke-width:1.0px;stroke-linecap:butt;stroke-linejoin:miter;stroke-opacity:1"/>
<path class="bond-1 atom-3 atom-2" d="M 57.1,108.4 L 59.8,110.7" style="fill:none;fill-rule:evenodd;stroke:#000000;stroke-width:1.0px;stroke-linecap:butt;stroke-linejoin:miter;stroke-opacity:1"/>
<path class="bond-1 atom-3 atom-2" d="M 54.6,111.0 L 57.8,113.6" style="fill:none;fill-rule:evenodd;stroke:#000000;stroke-width:1.0px;stroke-linecap:butt;stroke-linejoin:miter;stroke-opacity:1"/>
<path class="bond-1 atom-3 atom-2" d="M 52.1,113.6 L 55.7,116.6" style="fill:none;fill-rule:evenodd;stroke:#000000;stroke-width:1.0px;stroke-linecap:butt;stroke-linejoin:miter;stroke-opacity:1"/>
<path class="bond-1 atom-3 atom-2" d="M 49.5,116.2 L 53.7,119.6" style="fill:none;fill-rule:evenodd;stroke:#000000;stroke-width:1.0px;stroke-linecap:butt;stroke-linejoin:miter;stroke-opacity:1"/>
<path class="bond-1 atom-3 atom-2" d="M 47.0,118.8 L 51.6,122.5" style="fill:none;fill-rule:evenodd;stroke:#000000;stroke-width:1.0px;stroke-linecap:butt;stroke-linejoin:miter;stroke-opacity:1"/>
<path class="bond-2 atom-3 atom-4" d="M 72.1,92.8 L 111.7,91.0" style="fill:none;fill-rule:evenodd;stroke:#000000;stroke-width:2.0px;stroke-linecap:butt;stroke-linejoin:miter;stroke-opacity:1"/>
<path class="bond-3 atom-4 atom-5" d="M 111.7,91.0 L 130.3,114.5 L 125.3,117.7 Z" style="fill:#E5E5E5;fill-rule:evenodd;fill-opacity:1;stroke:#E5E5E5;stroke-width:0.5px;stroke-linecap:butt;stroke-linejoin:miter;stroke-miterlimit:10;stroke-opacity:1;"/>
<path class="bond-4 atom-8 atom-7" d="M 50.8,59.5 L 65.3,25.0 L 70.6,27.7 Z" style="fill:#E5E5E5;fill-rule:evenodd;fill-opacity:1;stroke:#E5E5E5;stroke-width:0.5px;stroke-linecap:butt;stroke-linejoin:miter;stroke-miterlimit:10;stroke-opacity:1;"/>
<path class="bond-5 atom-8 atom-9" d="M 50.8,59.5 L 30.5,26.5" style="fill:none;fill-rule:evenodd;stroke:#E5E5E5;stroke-width:2.1px;stroke-linecap:butt;stroke-linejoin:miter;stroke-opacity:1"/>
<path class="bond-6 atom-0 atom-8" d="M 17.7,68.1 L 49.2,56.9 L 50.8,59.5 L 52.5,62.2 Z" style="fill:#E5E5E5;fill-rule:evenodd;fill-opacity:1;stroke:#E5E5E5;stroke-width:0.5px;stroke-linecap:butt;stroke-linejoin:miter;stroke-miterlimit:10;stroke-opacity:1;"/>
<path class="bond-7 atom-8 atom-3" d="M 50.8,59.5 L 72.1,92.8" style="fill:none;fill-rule:evenodd;stroke:#000000;stroke-width:2.0px;stroke-linecap:butt;stroke-linejoin:miter;stroke-opacity:1"/>
<path class="bond-8 atom-6 atom-4" d="M 127.0,60.8 L 127.5,61.0" style="fill:none;fill-rule:evenodd;stroke:#E5E5E5;stroke-width:1.0px;stroke-linecap:butt;stroke-linejoin:miter;stroke-opacity:1"/>
<path class="bond-8 atom-6 atom-4" d="M 125.2,63.6 L 126.2,64.2" style="fill:none;fill-rule:evenodd;stroke:#E5E5E5;stroke-width:1.0px;stroke-linecap:butt;stroke-linejoin:miter;stroke-opacity:1"/>
<path class="bond-8 atom-6 atom-4" d="M 123.4,66.5 L 125.0,67.3" style="fill:none;fill-rule:evenodd;stroke:#E5E5E5;stroke-width:1.0px;stroke-linecap:butt;stroke-linejoin:miter;stroke-opacity:1"/>
<path class="bond-8 atom-6 atom-4" d="M 121.6,69.4 L 123.7,70.5" style="fill:none;fill-rule:evenodd;stroke:#E5E5E5;stroke-width:1.0px;stroke-linecap:butt;stroke-linejoin:miter;stroke-opacity:1"/>
<path class="bond-8 atom-6 atom-4" d="M 119.7,72.3 L 122.4,73.6" style="fill:none;fill-rule:evenodd;stroke:#E5E5E5;stroke-width:1.0px;stroke-linecap:butt;stroke-linejoin:miter;stroke-opacity:1"/>
<path class="bond-8 atom-6 atom-4" d="M 117.9,75.1 L 121.1,76.8" style="fill:none;fill-rule:evenodd;stroke:#E5E5E5;stroke-width:1.0px;stroke-linecap:butt;stroke-linejoin:miter;stroke-opacity:1"/>
<path class="bond-8 atom-6 atom-4" d="M 116.1,78.0 L 119.8,79.9" style="fill:none;fill-rule:evenodd;stroke:#E5E5E5;stroke-width:1.0px;stroke-linecap:butt;stroke-linejoin:miter;stroke-opacity:1"/>
<path class="bond-8 atom-6 atom-4" d="M 114.3,80.9 L 118.5,83.1" style="fill:none;fill-rule:evenodd;stroke:#E5E5E5;stroke-width:1.0px;stroke-linecap:butt;stroke-linejoin:miter;stroke-opacity:1"/>
<path class="bond-8 atom-6 atom-4" d="M 112.4,83.8 L 117.2,86.2" style="fill:none;fill-rule:evenodd;stroke:#E5E5E5;stroke-width:1.0px;stroke-linecap:butt;stroke-linejoin:miter;stroke-opacity:1"/>
<path class="bond-8 atom-6 atom-4" d="M 110.6,86.6 L 115.9,89.4" style="fill:none;fill-rule:evenodd;stroke:#E5E5E5;stroke-width:1.0px;stroke-linecap:butt;stroke-linejoin:miter;stroke-opacity:1"/>
<path d="M 74.1,92.7 L 72.1,92.8 L 71.1,91.2" style="fill:none;stroke:#000000;stroke-width:2.0px;stroke-linecap:butt;stroke-linejoin:miter;stroke-miterlimit:10;stroke-opacity:1;"/>
<path class="atom-0" d="M 10.4 68.2 L 12.0 66.6 L 9.8 66.1 L 10.2 65.0 L 12.2 66.0 L 11.9 63.8 L 13.1 63.8 L 12.7 66.0 L 14.8 65.0 L 15.1 66.1 L 12.9 66.5 L 14.5 68.2 L 13.5 68.9 L 12.4 66.8 L 11.3 68.9 L 10.4 68.2 " fill="#191919"/>
<path class="atom-1" d="M 8.0 107.8 L 9.7 106.1 L 7.5 105.7 L 7.8 104.5 L 9.8 105.5 L 9.6 103.3 L 10.7 103.3 L 10.4 105.5 L 12.5 104.6 L 12.8 105.7 L 10.6 106.1 L 12.2 107.8 L 11.2 108.5 L 10.1 106.4 L 9.0 108.5 L 8.0 107.8 " fill="#191919"/>
<path class="atom-5" d="M 130.9 123.1 L 132.6 121.4 L 130.4 121.0 L 130.7 119.9 L 132.7 120.9 L 132.5 118.7 L 133.6 118.7 L 133.3 120.9 L 135.4 119.9 L 135.7 121.0 L 133.5 121.4 L 135.1 123.1 L 134.1 123.8 L 133.0 121.7 L 131.9 123.8 L 130.9 123.1 " fill="#191919"/>
<path class="atom-6" d="M 127.8 54.6 L 129.4 52.9 L 127.2 52.5 L 127.6 51.4 L 129.6 52.4 L 129.3 50.2 L 130.5 50.2 L 130.2 52.4 L 132.2 51.4 L 132.5 52.5 L 130.3 52.9 L 131.9 54.6 L 130.9 55.3 L 129.9 53.2 L 128.7 55.3 L 127.8 54.6 " fill="#191919"/>
<path class="atom-6" d="M 133.7 50.3 L 135.2 50.3 L 135.2 55.1 L 141.0 55.1 L 141.0 50.3 L 142.5 50.3 L 142.5 61.6 L 141.0 61.6 L 141.0 56.4 L 135.2 56.4 L 135.2 61.6 L 133.7 61.6 L 133.7 50.3 " fill="#191919"/>
<path class="atom-7" d="M 66.9 23.1 L 68.5 21.4 L 66.3 21.0 L 66.7 19.8 L 68.7 20.8 L 68.4 18.6 L 69.6 18.6 L 69.2 20.8 L 71.3 19.9 L 71.6 21.0 L 69.4 21.4 L 71.0 23.1 L 70.0 23.8 L 68.9 21.7 L 67.8 23.8 L 66.9 23.1 " fill="#191919"/>
<path class="atom-9" d="M 27.9 24.5 L 29.6 22.9 L 27.4 22.4 L 27.7 21.3 L 29.7 22.3 L 29.4 20.1 L 30.6 20.1 L 30.3 22.3 L 32.3 21.3 L 32.7 22.4 L 30.5 22.8 L 32.0 24.5 L 31.1 25.2 L 30.0 23.1 L 28.9 25.2 L 27.9 24.5 " fill="#191919"/>
</svg>