<svg xmlns="http://www.w3.org/2000/svg" xmlns:rdkit="http://www.rdkit.org/xml" xmlns:xlink="http://www.w3.org/1999/xlink" version="1.1" baseProfile="full" xml:space="preserve" width="150px" height="150px" viewBox="0 0 150 150">
<!-- END OF HEADER -->
<rect style="opacity:1.0;fill:#FFFFFF;stroke:none" width="150.0" height="150.0" x="0.0" y="0.0"> </rect>
<ellipse cx="123.4" cy="46.0" rx="11.9" ry="11.9" class="atom-2" style="fill:#E5E533;fill-rule:evenodd;stroke:#E5E533;stroke-width:1.0px;stroke-linecap:butt;stroke-linejoin:miter;stroke-opacity:1"/>
<ellipse cx="118.6" cy="105.2" rx="11.9" ry="11.9" class="atom-3" style="fill:#9999E5;fill-rule:evenodd;stroke:#9999E5;stroke-width:1.0px;stroke-linecap:butt;stroke-linejoin:miter;stroke-opacity:1"/>
<ellipse cx="65.1" cy="130.6" rx="11.9" ry="11.9" class="atom-4" style="fill:#E5E533;fill-rule:evenodd;stroke:#E5E533;stroke-width:1.0px;stroke-linecap:butt;stroke-linejoin:miter;stroke-opacity:1"/>
<path class="bond-0 atom-1 atom-2" d="M 76.1,13.5 L 123.4,46.0" style="fill:none;fill-rule:evenodd;stroke:#E5E5E5;stroke-width:3.2px;stroke-linecap:butt;stroke-linejoin:miter;stroke-opacity:1"/>
<path class="bond-0 atom-1 atom-2" d="M 71.1,20.8 L 114.1,50.4" style="fill:none;fill-rule:evenodd;stroke:#E5E5E5;stroke-width:3.2px;stroke-linecap:butt;stroke-linejoin:miter;stroke-opacity:1;stroke-dasharray:6,4"/>
<path class="bond-1 atom-2 atom-3" d="M 123.4,46.0 L 119.5,94.8" style="fill:none;fill-rule:evenodd;stroke:#000000;stroke-width:2.0px;stroke-linecap:butt;stroke-linejoin:miter;stroke-opacity:1"/>
<path class="bond-1 atom-2 atom-3" d="M 114.1,50.4 L 110.6,94.1" style="fill:none;fill-rule:evenodd;stroke:#000000;stroke-width:2.0px;stroke-linecap:butt;stroke-linejoin:miter;stroke-opacity:1;stroke-dasharray:6,4"/>
<path class="bond-2 atom-3 atom-4" d="M 110.3,109.1 L 65.1,130.6" style="fill:none;fill-rule:evenodd;stroke:#000000;stroke-width:2.0px;stroke-linecap:butt;stroke-linejoin:miter;stroke-opacity:1"/>
<path class="bond-2 atom-3 atom-4" d="M 106.5,101.1 L 65.9,120.4" style="fill:none;fill-rule:evenodd;stroke:#000000;stroke-width:2.0px;stroke-linecap:butt;stroke-linejoin:miter;stroke-opacity:1;stroke-dasharray:6,4"/>
<path class="bond-3 atom-4 atom-0" d="M 65.1,130.6 L 17.8,98.1" style="fill:none;fill-rule:evenodd;stroke:#E5E5E5;stroke-width:3.2px;stroke-linecap:butt;stroke-linejoin:miter;stroke-opacity:1"/>
<path class="bond-3 atom-4 atom-0" d="M 65.9,120.4 L 22.9,90.8" style="fill:none;fill-rule:evenodd;stroke:#E5E5E5;stroke-width:3.2px;stroke-linecap:butt;stroke-linejoin:miter;stroke-opacity:1;stroke-dasharray:6,4"/>
<path d="M 122.2,45.2 L 123.4,46.0 L 123.3,47.2" style="fill:none;stroke:#E5E5E5;stroke-width:3.2px;stroke-linecap:butt;stroke-linejoin:miter;stroke-miterlimit:10;stroke-opacity:1;"/>
<path d="M 66.2,130.1 L 65.1,130.6 L 63.9,129.8" style="fill:none;stroke:#000000;stroke-width:2.0px;stroke-linecap:butt;stroke-linejoin:miter;stroke-miterlimit:10;stroke-opacity:1;"/>
<path class="atom-0" d="M 15.6 91.5 L 18.1 88.9 L 14.8 88.3 L 15.3 86.6 L 18.3 88.1 L 17.9 84.8 L 19.6 84.8 L 19.1 88.1 L 22.2 86.7 L 22.7 88.3 L 19.4 88.9 L 21.8 91.4 L 20.3 92.5 L 18.7 89.3 L 17.0 92.5 L 15.6 91.5 " fill="#191919"/>
<path class="atom-1" d="M 68.8 14.2 L 71.3 11.7 L 68.0 11.0 L 68.5 9.3 L 71.5 10.8 L 71.1 7.5 L 72.9 7.5 L 72.4 10.8 L 75.4 9.4 L 76.0 11.0 L 72.6 11.6 L 75.0 14.1 L 73.6 15.2 L 71.9 12.1 L 70.3 15.2 L 68.8 14.2 " fill="#191919"/>
<path class="atom-3" d="M 114.9 96.8 L 120.4 105.7 Q 121.0 106.5, 121.9 108.1 Q 122.7 109.7, 122.8 109.8 L 122.8 96.8 L 125.0 96.8 L 125.0 113.6 L 122.7 113.6 L 116.8 103.8 Q 116.1 102.7, 115.4 101.4 Q 114.7 100.1, 114.5 99.7 L 114.5 113.6 L 112.3 113.6 L 112.3 96.8 L 114.9 96.8 " fill="#000000"/>
</svg>