<svg xmlns="http://www.w3.org/2000/svg" xmlns:rdkit="http://www.rdkit.org/xml" xmlns:xlink="http://www.w3.org/1999/xlink" version="1.1" baseProfile="full" xml:space="preserve" width="150px" height="150px" viewBox="0 0 150 150">
<!-- END OF HEADER -->
<rect style="opacity:1.0;fill:#FFFFFF;stroke:none" width="150.0" height="150.0" x="0.0" y="0.0"> </rect>
<ellipse cx="79.2" cy="61.1" rx="14.6" ry="14.6" class="atom-1" style="fill:#9999E5;fill-rule:evenodd;stroke:#9999E5;stroke-width:1.0px;stroke-linecap:butt;stroke-linejoin:miter;stroke-opacity:1"/>
<path class="bond-0 atom-0 atom-1" d="M 19.7,86.9 L 79.2,61.1" style="fill:none;fill-rule:evenodd;stroke:#E5E5E5;stroke-width:3.9px;stroke-linecap:butt;stroke-linejoin:miter;stroke-opacity:1"/>
<path class="bond-1 atom-1 atom-2" d="M 79.2,61.1 L 130.3,99.1" style="fill:none;fill-rule:evenodd;stroke:#E5E5E5;stroke-width:3.9px;stroke-linecap:butt;stroke-linejoin:miter;stroke-opacity:1"/>
<path d="M 76.2,62.4 L 79.2,61.1 L 81.7,63.0" style="fill:none;stroke:#E5E5E5;stroke-width:3.9px;stroke-linecap:butt;stroke-linejoin:miter;stroke-miterlimit:10;stroke-opacity:1;"/>
<path class="atom-0" d="M 8.5 87.8 L 11.5 84.7 L 7.5 83.9 L 8.1 81.8 L 11.8 83.6 L 11.3 79.6 L 13.5 79.6 L 12.9 83.6 L 16.6 81.9 L 17.3 83.9 L 13.2 84.6 L 16.1 87.7 L 14.3 89.0 L 12.3 85.2 L 10.3 89.0 L 8.5 87.8 " fill="#191919"/>
<path class="atom-2" d="M 133.7 102.2 L 136.8 99.1 L 132.7 98.3 L 133.4 96.2 L 137.1 98.1 L 136.5 94.0 L 138.7 94.0 L 138.1 98.1 L 141.9 96.3 L 142.5 98.3 L 138.4 99.0 L 141.3 102.2 L 139.6 103.4 L 137.6 99.6 L 135.5 103.4 L 133.7 102.2 " fill="#191919"/>
</svg>