<svg xmlns="http://www.w3.org/2000/svg" xmlns:rdkit="http://www.rdkit.org/xml" xmlns:xlink="http://www.w3.org/1999/xlink" version="1.1" baseProfile="full" xml:space="preserve" width="150px" height="150px" viewBox="0 0 150 150">
<!-- END OF HEADER -->
<rect style="opacity:1.0;fill:#FFFFFF;stroke:none" width="150.0" height="150.0" x="0.0" y="0.0"> </rect>
<ellipse cx="33.0" cy="79.2" rx="9.9" ry="9.9" class="atom-1" style="fill:#E5E533;fill-rule:evenodd;stroke:#E5E533;stroke-width:1.0px;stroke-linecap:butt;stroke-linejoin:miter;stroke-opacity:1"/>
<ellipse cx="79.7" cy="63.1" rx="9.9" ry="9.9" class="atom-2" style="fill:#9999E5;fill-rule:evenodd;stroke:#9999E5;stroke-width:1.0px;stroke-linecap:butt;stroke-linejoin:miter;stroke-opacity:1"/>
<ellipse cx="117.0" cy="95.4" rx="9.9" ry="9.9" class="atom-4" style="fill:#E5E533;fill-rule:evenodd;stroke:#E5E533;stroke-width:1.0px;stroke-linecap:butt;stroke-linejoin:miter;stroke-opacity:1"/>
<path class="bond-0 atom-0 atom-1" d="M 25.3,119.0 L 33.0,79.2" style="fill:none;fill-rule:evenodd;stroke:#E5E5E5;stroke-width:2.6px;stroke-linecap:butt;stroke-linejoin:miter;stroke-opacity:1"/>
<path class="bond-0 atom-0 atom-1" d="M 32.6,120.4 L 39.5,84.8" style="fill:none;fill-rule:evenodd;stroke:#E5E5E5;stroke-width:2.6px;stroke-linecap:butt;stroke-linejoin:miter;stroke-opacity:1;stroke-dasharray:6,4"/>
<path class="bond-1 atom-1 atom-2" d="M 33.0,79.2 L 79.7,63.1" style="fill:none;fill-rule:evenodd;stroke:#000000;stroke-width:2.0px;stroke-linecap:butt;stroke-linejoin:miter;stroke-opacity:1"/>
<path class="bond-1 atom-1 atom-2" d="M 39.5,84.8 L 78.1,71.5" style="fill:none;fill-rule:evenodd;stroke:#000000;stroke-width:2.0px;stroke-linecap:butt;stroke-linejoin:miter;stroke-opacity:1;stroke-dasharray:6,4"/>
<path class="bond-2 atom-2 atom-3" d="M 79.7,63.1 L 83.5,43.3" style="fill:none;fill-rule:evenodd;stroke:#000000;stroke-width:2.0px;stroke-linecap:butt;stroke-linejoin:miter;stroke-opacity:1"/>
<path class="bond-2 atom-2 atom-3" d="M 83.5,43.3 L 87.3,23.5" style="fill:none;fill-rule:evenodd;stroke:#FF0000;stroke-width:2.0px;stroke-linecap:butt;stroke-linejoin:miter;stroke-opacity:1"/>
<path class="bond-3 atom-2 atom-4" d="M 79.7,63.1 L 117.0,95.4" style="fill:none;fill-rule:evenodd;stroke:#000000;stroke-width:2.0px;stroke-linecap:butt;stroke-linejoin:miter;stroke-opacity:1"/>
<path class="bond-3 atom-2 atom-4" d="M 78.1,71.5 L 108.9,98.2" style="fill:none;fill-rule:evenodd;stroke:#000000;stroke-width:2.0px;stroke-linecap:butt;stroke-linejoin:miter;stroke-opacity:1;stroke-dasharray:6,4"/>
<path class="bond-4 atom-4 atom-5" d="M 117.0,95.4 L 109.4,135.2" style="fill:none;fill-rule:evenodd;stroke:#E5E5E5;stroke-width:2.6px;stroke-linecap:butt;stroke-linejoin:miter;stroke-opacity:1"/>
<path class="bond-4 atom-4 atom-5" d="M 108.9,98.2 L 102.1,133.8" style="fill:none;fill-rule:evenodd;stroke:#E5E5E5;stroke-width:2.6px;stroke-linecap:butt;stroke-linejoin:miter;stroke-opacity:1;stroke-dasharray:6,4"/>
<path d="M 32.8,80.2 L 33.0,79.2 L 34.2,78.8" style="fill:none;stroke:#E5E5E5;stroke-width:2.6px;stroke-linecap:butt;stroke-linejoin:miter;stroke-miterlimit:10;stroke-opacity:1;"/>
<path d="M 116.1,94.6 L 117.0,95.4 L 116.8,96.4" style="fill:none;stroke:#000000;stroke-width:2.0px;stroke-linecap:butt;stroke-linejoin:miter;stroke-miterlimit:10;stroke-opacity:1;"/>
<path class="atom-0" d="M 24.7 126.9 L 26.7 124.8 L 24.0 124.2 L 24.4 122.8 L 26.9 124.1 L 26.6 121.4 L 28.0 121.3 L 27.6 124.1 L 30.2 122.9 L 30.6 124.2 L 27.8 124.7 L 29.8 126.9 L 28.6 127.7 L 27.3 125.1 L 25.9 127.7 L 24.7 126.9 " fill="#191919"/>
<path class="atom-3" d="M 82.6 14.6 Q 82.6 11.3, 84.2 9.4 Q 85.9 7.5, 89.0 7.5 Q 92.1 7.5, 93.8 9.4 Q 95.4 11.3, 95.4 14.6 Q 95.4 18.0, 93.7 19.9 Q 92.1 21.9, 89.0 21.9 Q 85.9 21.9, 84.2 19.9 Q 82.6 18.0, 82.6 14.6 M 89.0 20.3 Q 91.1 20.3, 92.3 18.9 Q 93.4 17.4, 93.4 14.6 Q 93.4 11.9, 92.3 10.5 Q 91.1 9.1, 89.0 9.1 Q 86.9 9.1, 85.7 10.5 Q 84.6 11.8, 84.6 14.6 Q 84.6 17.4, 85.7 18.9 Q 86.9 20.3, 89.0 20.3 " fill="#FF0000"/>
<path class="atom-3" d="M 97.6 7.7 L 99.5 7.7 L 99.5 13.6 L 106.6 13.6 L 106.6 7.7 L 108.5 7.7 L 108.5 21.6 L 106.6 21.6 L 106.6 15.2 L 99.5 15.2 L 99.5 21.6 L 97.6 21.6 L 97.6 7.7 " fill="#FF0000"/>
<path class="atom-5" d="M 101.4 141.7 L 103.4 139.6 L 100.7 139.0 L 101.1 137.6 L 103.6 138.9 L 103.3 136.1 L 104.8 136.1 L 104.4 138.8 L 106.9 137.7 L 107.3 139.0 L 104.6 139.5 L 106.6 141.6 L 105.3 142.5 L 104.0 139.9 L 102.6 142.5 L 101.4 141.7 " fill="#191919"/>
</svg>