<svg xmlns="http://www.w3.org/2000/svg" xmlns:rdkit="http://www.rdkit.org/xml" xmlns:xlink="http://www.w3.org/1999/xlink" version="1.1" baseProfile="full" xml:space="preserve" width="150px" height="150px" viewBox="0 0 150 150">
<!-- END OF HEADER -->
<rect style="opacity:1.0;fill:#FFFFFF;stroke:none" width="150.0" height="150.0" x="0.0" y="0.0"> </rect>
<ellipse cx="92.0" cy="79.5" rx="14.5" ry="14.5" class="atom-1" style="fill:#9999E5;fill-rule:evenodd;stroke:#9999E5;stroke-width:1.0px;stroke-linecap:butt;stroke-linejoin:miter;stroke-opacity:1"/>
<path class="bond-0 atom-0 atom-1" d="M 129.6,19.3 L 92.0,79.5" style="fill:none;fill-rule:evenodd;stroke:#E5E5E5;stroke-width:3.9px;stroke-linecap:butt;stroke-linejoin:miter;stroke-opacity:1"/>
<path class="bond-1 atom-1 atom-2" d="M 92.0,79.5 L 119.3,130.7" style="fill:none;fill-rule:evenodd;stroke:#E5E5E5;stroke-width:3.9px;stroke-linecap:butt;stroke-linejoin:miter;stroke-opacity:1"/>
<path class="bond-2 atom-1 atom-3" d="M 92.0,79.5 L 26.8,77.2" style="fill:none;fill-rule:evenodd;stroke:#E5E5E5;stroke-width:3.9px;stroke-linecap:butt;stroke-linejoin:miter;stroke-opacity:1"/>
<path class="atom-0" d="M 126.6 15.7 L 129.6 12.6 L 125.6 11.8 L 126.2 9.7 L 129.9 11.6 L 129.4 7.5 L 131.6 7.5 L 131.0 11.5 L 134.7 9.8 L 135.3 11.8 L 131.3 12.5 L 134.2 15.6 L 132.4 16.9 L 130.4 13.1 L 128.4 16.9 L 126.6 15.7 " fill="#191919"/>
<path class="atom-2" d="M 122.2 141.3 L 125.3 138.2 L 121.3 137.4 L 121.9 135.3 L 125.5 137.2 L 125.0 133.1 L 127.2 133.1 L 126.6 137.1 L 130.3 135.4 L 131.0 137.4 L 126.9 138.1 L 129.8 141.2 L 128.0 142.5 L 126.0 138.7 L 124.0 142.5 L 122.2 141.3 " fill="#191919"/>
<path class="atom-3" d="M 15.6 74.7 L 18.7 71.6 L 14.7 70.8 L 15.3 68.7 L 19.0 70.6 L 18.4 66.5 L 20.6 66.5 L 20.0 70.6 L 23.7 68.8 L 24.4 70.8 L 20.3 71.5 L 23.2 74.6 L 21.5 75.9 L 19.5 72.1 L 17.4 75.9 L 15.6 74.7 " fill="#191919"/>
</svg>