<svg xmlns="http://www.w3.org/2000/svg" xmlns:rdkit="http://www.rdkit.org/xml" xmlns:xlink="http://www.w3.org/1999/xlink" version="1.1" baseProfile="full" xml:space="preserve" width="150px" height="150px" viewBox="0 0 150 150">
<!-- END OF HEADER -->
<rect style="opacity:1.0;fill:#FFFFFF;stroke:none" width="150.0" height="150.0" x="0.0" y="0.0"> </rect>
<ellipse cx="75.0" cy="60.9" rx="7.5" ry="7.5" class="atom-2" style="fill:#9999E5;fill-rule:evenodd;stroke:#9999E5;stroke-width:1.0px;stroke-linecap:butt;stroke-linejoin:miter;stroke-opacity:1"/>
<path class="bond-0 atom-0 atom-1" d="M 11.2,61.6 L 42.5,79.6" style="fill:none;fill-rule:evenodd;stroke:#E5E5E5;stroke-width:2.0px;stroke-linecap:butt;stroke-linejoin:miter;stroke-opacity:1"/>
<path class="bond-1 atom-1 atom-2" d="M 42.5,79.6 L 75.0,60.9" style="fill:none;fill-rule:evenodd;stroke:#000000;stroke-width:2.0px;stroke-linecap:butt;stroke-linejoin:miter;stroke-opacity:1"/>
<path class="bond-2 atom-2 atom-3" d="M 75.0,60.9 L 88.6,68.7" style="fill:none;fill-rule:evenodd;stroke:#000000;stroke-width:2.0px;stroke-linecap:butt;stroke-linejoin:miter;stroke-opacity:1"/>
<path class="bond-2 atom-2 atom-3" d="M 88.6,68.7 L 102.2,76.6" style="fill:none;fill-rule:evenodd;stroke:#0000FF;stroke-width:2.0px;stroke-linecap:butt;stroke-linejoin:miter;stroke-opacity:1"/>
<path class="bond-3 atom-3 atom-4" d="M 112.8,76.6 L 138.8,61.6" style="fill:none;fill-rule:evenodd;stroke:#E5E5E5;stroke-width:2.0px;stroke-linecap:butt;stroke-linejoin:miter;stroke-opacity:1"/>
<path d="M 41.7,79.2 L 42.5,79.6 L 43.3,79.2" style="fill:none;stroke:#E5E5E5;stroke-width:2.0px;stroke-linecap:butt;stroke-linejoin:miter;stroke-miterlimit:10;stroke-opacity:1;"/>
<path d="M 73.4,61.8 L 75.0,60.9 L 75.7,61.3" style="fill:none;stroke:#000000;stroke-width:2.0px;stroke-linecap:butt;stroke-linejoin:miter;stroke-miterlimit:10;stroke-opacity:1;"/>
<path class="atom-0" d="M 8.0 59.7 L 9.6 58.1 L 7.5 57.7 L 7.8 56.6 L 9.7 57.6 L 9.5 55.5 L 10.6 55.5 L 10.3 57.6 L 12.2 56.7 L 12.5 57.7 L 10.4 58.1 L 11.9 59.7 L 11.0 60.3 L 10.0 58.4 L 8.9 60.3 L 8.0 59.7 " fill="#191919"/>
<path class="atom-3" d="M 105.1 74.3 L 108.6 79.9 Q 109.0 80.5, 109.5 81.5 Q 110.1 82.5, 110.1 82.6 L 110.1 74.3 L 111.5 74.3 L 111.5 84.9 L 110.1 84.9 L 106.3 78.8 Q 105.9 78.1, 105.4 77.2 Q 105.0 76.4, 104.8 76.2 L 104.8 84.9 L 103.5 84.9 L 103.5 74.3 L 105.1 74.3 " fill="#0000FF"/>
<path class="atom-3" d="M 103.3 86.0 L 104.8 86.0 L 104.8 90.5 L 110.2 90.5 L 110.2 86.0 L 111.7 86.0 L 111.7 96.6 L 110.2 96.6 L 110.2 91.7 L 104.8 91.7 L 104.8 96.6 L 103.3 96.6 L 103.3 86.0 " fill="#0000FF"/>
<path class="atom-4" d="M 138.0 59.7 L 139.5 58.1 L 137.5 57.7 L 137.8 56.6 L 139.7 57.6 L 139.4 55.5 L 140.5 55.5 L 140.2 57.6 L 142.2 56.7 L 142.5 57.7 L 140.4 58.1 L 141.9 59.7 L 141.0 60.3 L 139.9 58.4 L 138.9 60.3 L 138.0 59.7 " fill="#191919"/>
</svg>